{"title":"Bronson-AC3-5,1-DVDRip[Eng]2009","uid":5052978,"size":1491297063,"categoryP":"video","categoryS":"movies","magnet":"?xt=urn:btih:db80ef6a766d4b87bc1ade43ac6b1aebe5ed1986&amp;dn=Bronson-AC3-5%2C1-DVDRip%5BEng%5D2009&amp;tr=udp%3A%2F%2Ftracker.openbittorrent.com%3A80&amp;tr=udp%3A%2F%2Fopen.demonii.com%3A1337&amp;tr=udp%3A%2F%2Ftracker.coppersurfer.tk%3A6969&amp;tr=udp%3A%2F%2Fexodus.desync.com%3A6969","seeders":0,"leechers":0,"uploader":"FatFreddy31","files":-1,"time":1250262032,"description":" &lt;a href=&quot;http://www.imdb.com/title/tt1172570/&quot; rel=&quot;nofollow&quot; target=&quot;_NEW&quot;&gt;http://www.imdb.com/title/tt1172570/&lt;/a&gt;\n &lt;a href=&quot;\nhttp://www.bronsonthemovie.com/&quot; rel=&quot;nofollow&quot; target=&quot;_NEW&quot;&gt;\nhttp://www.bronsonthemovie.com/&lt;/a&gt;\n\nUser Rating:6.7/10 - 2,263 votes\n\nAction,Biography,Drama,Thriller\n\nDirector:Nicolas Winding Refn\n\nCast:Tom Hardy/Matt King/Kelly Adams/Katy Barker, and others.\n\nPlot:\nA young man who was sentenced to 7 years on prison for robbing a post office ends up spending 30 years in solitary confinement. During this time, his own personality is supplanted by his alter ego, Charles Bronson...\n\nInfo:\n\nCover included.\n\nGeneral\nComplete name                    : Bronson-AC3-5,1-DVDRip[Eng]2009.avi\nFormat                           : AVI\nFormat/Info                      : Audio Video Interleave\nFile size                        : 1.39 GiB\nDuration                         : 1h 28mn\nOverall bit rate                 : 2 238 Kbps\nWriting application              : VirtualDubMod 1.5.4.1 (build 2178/release)\nWriting library                  : VirtualDubMod build 2178/release\n\nVideo\nFormat                           : MPEG-4 Visual\nFormat profile                   : Streaming Video@L1\nFormat settings, BVOP            : Yes\nFormat settings, QPel            : No\nFormat settings, GMC             : No warppoints\nFormat settings, Matrix          : Default\nMuxing mode                      : Packed bitstream\nCodec ID                         : XVID\nCodec ID/Hint                    : XviD\nDuration                         : 1h 28mn\nBit rate                         : 1 783 Kbps\nWidth                            : 624 pixels\nHeight                           : 336 pixels\nDisplay aspect ratio             : 1.857\nFrame rate                       : 25.000 fps\nResolution                       : 24 bits\nColorimetry                      : 4:2:0\nScan type                        : Progressive\nBits/(Pixel*Frame)               : 0.340\nStream size                      : 1.11 GiB (80%)\nWriting library                  : XviD 50\n\nAudio\nFormat                           : AC-3\nFormat/Info                      : Audio Coding 3\nCodec ID                         : 2000\nDuration                         : 1h 28mn\nBit rate mode                    : Constant\nBit rate                         : 448 Kbps\nChannel(s)                       : 6 channels\nChannel positions                : Front: L C R, Surround: L R, LFE\nSampling rate                    : 48.0 KHz\nStream size                      : 284 MiB (20%)\nAlignment                        : Split accross interleaves\nInterleave, duration             : 80 ms (2.00 video frames)\nInterleave, preload duration     : 500 ms\nLanguage                         : English\n\nEnjoy...","torrent":{"xt":"urn:btih:db80ef6a766d4b87bc1ade43ac6b1aebe5ed1986","amp;dn":"Bronson-AC3-5%2C1-DVDRip%5BEng%5D2009","amp;tr":["udp%3A%2F%2Ftracker.openbittorrent.com%3A80","udp%3A%2F%2Fopen.demonii.com%3A1337","udp%3A%2F%2Ftracker.coppersurfer.tk%3A6969","udp%3A%2F%2Fexodus.desync.com%3A6969"],"infoHash":"db80ef6a766d4b87bc1ade43ac6b1aebe5ed1986","infoHashBuffer":{"type":"Buffer","data":[219,128,239,106,118,109,75,135,188,26,222,67,172,107,26,235,229,237,25,134]},"announce":[],"urlList":[]}}